<svg width="24" height="25" viewBox="0 0 24 25" fill="none" xmlns="http://www.w3.org/2000/svg">
<path d="M22 12.5603C22 15.2125 20.9464 17.756 19.0711 19.6314C17.1957 21.5067 14.6522 22.5603 12 22.5603C10.6868 22.5603 9.38642 22.3016 8.17317 21.7991C6.95991 21.2966 5.85752 20.56 4.92893 19.6314C3.05357 17.756 2 15.2125 2 12.5603C2 9.90814 3.05357 7.3646 4.92893 5.48923C6.8043 3.61387 9.34784 2.5603 12 2.5603C13.3132 2.5603 14.6136 2.81896 15.8268 3.32151C17.0401 3.82405 18.1425 4.56065 19.0711 5.48923C19.9997 6.41782 20.7362 7.52021 21.2388 8.73347C21.7413 9.94672 22 11.2471 22 12.5603ZM20 12.5603C20 10.4386 19.1571 8.40374 17.6569 6.90345C16.1566 5.40316 14.1217 4.5603 12 4.5603C9.87827 4.5603 7.84344 5.40316 6.34315 6.90345C4.84285 8.40374 4 10.4386 4 12.5603C4 14.682 4.84285 16.7169 6.34315 18.2172C7.84344 19.7174 9.87827 20.5603 12 20.5603C14.1217 20.5603 16.1566 19.7174 17.6569 18.2172C19.1571 16.7169 20 14.682 20 12.5603ZM15.4 17.1603L10.8 12.5603L15.4 7.9603L14 6.5603L8 12.5603L14 18.5603L15.4 17.1603Z" fill="white"/>
</svg>
